<?xml version="1.0" encoding="UTF-8"?>
<svg xmlns="http://www.w3.org/2000/svg" xmlns:xlink="http://www.w3.org/1999/xlink" width="239pt" height="65pt" viewBox="0 0 239 65" version="1.1">
<g id="surface1">
<path style=" stroke:none;fill-rule:nonzero;fill:rgb(0%,0%,0%);fill-opacity:1;" d="M 139.492188 10.429688 C 137.226562 11.476562 135.777344 13.566406 135.464844 16.328125 L 135.273438 17.910156 L 135.683594 16.328125 C 136.785156 12.144531 138.738281 10.304688 142.070312 10.304688 C 143.136719 10.304688 143.863281 10.210938 143.675781 10.078125 C 142.984375 9.636719 140.8125 9.828125 139.492188 10.429688 Z M 139.492188 10.429688 "/>
<path style=" stroke:none;fill-rule:nonzero;fill:rgb(0%,0%,0%);fill-opacity:1;" d="M 144.398438 10.589844 C 144.398438 10.648438 144.648438 10.90625 144.964844 11.125 C 145.4375 11.539062 145.46875 11.507812 145.058594 11 C 144.648438 10.496094 144.398438 10.335938 144.398438 10.589844 Z M 144.398438 10.589844 "/>
<path style=" stroke:none;fill-rule:nonzero;fill:rgb(0%,0%,0%);fill-opacity:1;" d="M 149.78125 12.492188 C 149.402344 13.253906 149.019531 14.613281 148.898438 15.5 C 148.804688 16.390625 148.710938 17.117188 148.679688 17.117188 C 148.644531 17.117188 148.078125 16.832031 147.386719 16.484375 C 146.664062 16.105469 145.53125 15.851562 144.683594 15.851562 C 143.234375 15.851562 143.171875 15.882812 141.535156 17.972656 C 140.621094 19.179688 138.105469 22.289062 135.90625 24.886719 C 132.160156 29.355469 131.945312 29.671875 132.445312 30.210938 C 132.730469 30.496094 133.167969 30.75 133.421875 30.75 C 134.140625 30.75 143.171875 28.46875 143.042969 28.308594 C 142.949219 28.246094 141.472656 28.566406 139.738281 29.007812 C 138.011719 29.449219 136.4375 29.796875 136.28125 29.796875 C 136.15625 29.796875 135.652344 29.230469 135.179688 28.53125 C 134.742188 27.804688 134.488281 27.328125 134.679688 27.453125 C 134.867188 27.546875 135.304688 28.089844 135.652344 28.660156 C 136 29.199219 136.1875 29.355469 136.058594 29.007812 C 135.9375 28.660156 135.8125 28.214844 135.8125 27.996094 C 135.8125 27.769531 135.683594 27.675781 135.554688 27.738281 C 135.464844 27.835938 135.179688 27.675781 134.960938 27.421875 C 134.613281 27.011719 134.679688 26.785156 135.273438 26.152344 C 135.683594 25.742188 136.09375 25.457031 136.21875 25.519531 C 136.34375 25.582031 136.785156 25.265625 137.195312 24.792969 C 137.886719 23.996094 137.886719 23.996094 137.257812 24.539062 C 135.9375 25.679688 136.535156 24.757812 139.902344 20.542969 C 141.757812 18.230469 143.265625 16.296875 143.300781 16.230469 C 143.328125 16.199219 143.707031 16.296875 144.113281 16.453125 C 144.617188 16.640625 144.683594 16.769531 144.335938 16.769531 C 143.800781 16.804688 140.183594 20.574219 139.617188 21.714844 C 139.238281 22.476562 139.332031 22.347656 141.566406 19.6875 C 143.234375 17.71875 144.964844 16.582031 145.75 16.960938 C 145.972656 17.089844 145.84375 16.929688 145.53125 16.675781 C 144.902344 16.167969 144.902344 16.167969 145.53125 16.167969 C 146.382812 16.167969 147.605469 17.089844 147.355469 17.53125 C 147.230469 17.753906 147.261719 17.816406 147.386719 17.65625 C 147.671875 17.433594 148.804688 18.292969 148.804688 18.734375 C 148.804688 18.894531 148.394531 19.210938 147.859375 19.496094 C 146.757812 20.066406 146.570312 20.765625 147.578125 20.449219 L 148.269531 20.226562 L 147.578125 21.207031 C 146.726562 22.382812 147.292969 22.570312 148.613281 21.527344 L 149.429688 20.890625 L 149.242188 21.839844 C 148.992188 23.109375 149.304688 23.078125 149.875 21.777344 L 150.3125 20.765625 L 150.34375 22.667969 C 150.378906 25.300781 150.125 25.996094 148.992188 26.5 C 148.234375 26.820312 148.175781 26.914062 148.679688 26.949219 C 150.09375 26.949219 150.46875 26.25 150.628906 23.332031 C 150.753906 20.640625 150.785156 20.605469 151.601562 20.574219 C 152.136719 20.542969 152.230469 20.480469 151.886719 20.386719 C 150.972656 20.164062 151.257812 19.652344 152.261719 19.652344 C 153.175781 19.652344 153.519531 19.242188 152.894531 18.863281 C 152.734375 18.765625 152.578125 18.832031 152.578125 18.988281 C 152.578125 19.179688 152.292969 19.339844 151.917969 19.339844 L 151.289062 19.339844 L 151.917969 18.515625 C 152.609375 17.625 152.796875 16.484375 152.261719 16.484375 C 152.105469 16.484375 152.042969 16.707031 152.167969 16.960938 C 152.359375 17.53125 151.445312 18.703125 150.785156 18.703125 C 150.25 18.703125 150.25 18.542969 150.910156 17.496094 L 151.445312 16.640625 L 150.722656 17.277344 C 150.125 17.78125 149.96875 17.816406 149.714844 17.433594 C 149.304688 16.832031 149.59375 14.648438 150.214844 13.09375 C 150.722656 11.917969 150.753906 11.917969 151.191406 12.523438 C 151.570312 13.03125 151.695312 13.058594 151.917969 12.710938 C 152.074219 12.460938 152.417969 12.363281 152.734375 12.492188 C 153.175781 12.648438 153.238281 12.902344 153.050781 13.820312 C 152.863281 14.898438 152.894531 14.960938 153.488281 14.804688 C 154.058594 14.679688 154.121094 14.742188 153.964844 15.40625 C 153.835938 15.949219 153.898438 16.167969 154.246094 16.167969 C 154.652344 16.167969 155.0625 16.929688 155.222656 17.945312 C 155.222656 18.132812 155.660156 18.640625 156.195312 19.085938 C 157.011719 19.8125 157.078125 19.9375 156.671875 20.449219 C 156.257812 20.953125 156.257812 21.019531 156.671875 20.863281 C 157.457031 20.605469 157.386719 19.71875 156.507812 18.894531 C 156.039062 18.449219 155.757812 17.945312 155.882812 17.71875 C 156.007812 17.53125 155.945312 17.277344 155.757812 17.152344 C 155.472656 16.960938 155.472656 16.675781 155.722656 16.042969 C 156.039062 15.183594 156.007812 15.15625 155.222656 15.34375 C 154.464844 15.535156 154.402344 15.5 154.589844 14.742188 C 154.75 14.105469 154.683594 13.945312 154.183594 13.945312 C 153.707031 13.945312 153.519531 13.695312 153.460938 12.902344 C 153.367188 12.046875 153.238281 11.886719 152.515625 11.886719 C 152.042969 11.886719 151.476562 11.695312 151.289062 11.476562 C 150.660156 10.875 150.46875 11 149.78125 12.492188 Z M 149.78125 12.492188 "/>
<path style=" stroke:none;fill-rule:nonzero;fill:rgb(0%,0%,0%);fill-opacity:1;" d="M 134.457031 12.839844 C 133.890625 14.230469 133.292969 16.992188 133.480469 17.53125 C 133.542969 17.71875 133.703125 17.214844 133.828125 16.355469 C 133.953125 15.472656 134.332031 14.105469 134.679688 13.253906 C 135.339844 11.507812 135.179688 11.160156 134.457031 12.839844 Z M 134.457031 12.839844 "/>
<path style=" stroke:none;fill-rule:nonzero;fill:rgb(0%,0%,0%);fill-opacity:1;" d="M 149.933594 15.089844 C 149.808594 15.535156 149.78125 15.976562 149.839844 16.070312 C 149.933594 16.136719 150.09375 15.820312 150.1875 15.34375 C 150.3125 14.898438 150.34375 14.457031 150.28125 14.363281 C 150.1875 14.296875 150.027344 14.613281 149.933594 15.089844 Z M 149.933594 15.089844 "/>
<path style=" stroke:none;fill-rule:nonzero;fill:rgb(0%,0%,0%);fill-opacity:1;" d="M 145.183594 18.070312 C 145.089844 18.257812 145.21875 18.292969 145.46875 18.195312 C 146.03125 17.972656 146.128906 17.753906 145.6875 17.753906 C 145.5 17.753906 145.28125 17.878906 145.183594 18.070312 Z M 145.183594 18.070312 "/>
<path style=" stroke:none;fill-rule:nonzero;fill:rgb(0%,0%,0%);fill-opacity:1;" d="M 118.539062 19.496094 C 117.75 20.605469 117.3125 20.953125 116.429688 21.078125 C 114.324219 21.398438 112.121094 22.191406 111.402344 22.855469 C 110.328125 23.871094 110.859375 23.964844 112.847656 23.046875 C 113.847656 22.601562 115.269531 22.160156 115.992188 22.03125 L 117.28125 21.8125 L 116.871094 23.269531 C 116.621094 24.0625 116.273438 25.867188 116.085938 27.328125 C 115.644531 30.53125 114.921875 33.285156 114.511719 33.285156 C 114.324219 33.285156 114.199219 31.957031 114.199219 30.148438 C 114.199219 28.402344 114.101562 26.785156 114.011719 26.5 C 113.695312 25.679688 112.65625 25.933594 112.023438 26.976562 C 111.683594 27.546875 111.332031 27.804688 111.238281 27.613281 C 111.113281 27.421875 110.671875 27.261719 110.261719 27.261719 C 109.605469 27.261719 109.476562 27.484375 109.164062 29.070312 C 108.25 33.476562 106.898438 33.320312 107.40625 28.847656 C 107.625 27.042969 107.59375 26.949219 106.835938 26.757812 C 105.890625 26.535156 105.390625 26.785156 105.390625 27.519531 C 105.359375 27.804688 105.011719 28.6875 104.605469 29.484375 C 103.910156 30.84375 103.878906 30.878906 103.6875 30.117188 C 103.59375 29.671875 103.46875 28.816406 103.441406 28.214844 C 103.34375 27.261719 103.21875 27.105469 102.492188 27.011719 C 101.707031 26.914062 101.613281 27.011719 101.425781 28.183594 C 101.332031 28.878906 100.921875 29.738281 100.515625 30.117188 L 99.820312 30.78125 L 99.632812 29.640625 C 99.378906 28.117188 98.90625 27.578125 97.808594 27.578125 C 96.769531 27.578125 96.390625 28.117188 95.574219 30.910156 L 95.039062 32.8125 L 95.226562 31.128906 C 95.386719 29.511719 95.386719 29.484375 94.597656 29.484375 C 94.160156 29.484375 93.71875 29.703125 93.625 29.988281 C 93.339844 30.75 93.402344 37.597656 93.75 40.230469 C 94.03125 42.449219 94.441406 43.242188 95.164062 43.019531 C 95.351562 42.957031 95.574219 40.925781 95.667969 38.328125 C 95.859375 33.796875 96.578125 29.355469 97.210938 28.722656 C 97.710938 28.214844 98.152344 29.101562 98.152344 30.625 C 98.152344 31.671875 97.996094 31.984375 97.363281 32.335938 C 96.421875 32.84375 96.078125 33.796875 96.578125 34.398438 C 97.460938 35.445312 99.160156 34.460938 99.503906 32.714844 C 99.597656 32.207031 100.070312 31.636719 100.609375 31.320312 C 101.519531 30.75 101.550781 30.78125 102.054688 31.542969 C 102.714844 32.554688 103.3125 32.554688 104.320312 31.542969 L 105.105469 30.75 L 105.421875 31.636719 C 106.207031 33.699219 107.71875 34.207031 108.816406 32.78125 C 109.195312 32.304688 109.476562 31.734375 109.476562 31.511719 C 109.476562 30.972656 109.855469 30.9375 110.390625 31.449219 C 110.707031 31.796875 110.859375 31.734375 111.238281 31.257812 C 111.492188 30.910156 111.683594 30.402344 111.683594 30.117188 C 111.683594 29.832031 111.902344 29.324219 112.152344 28.976562 C 112.5625 28.433594 112.59375 28.625 112.625 30.910156 C 112.625 33.667969 113.097656 34.871094 114.226562 34.871094 C 114.890625 34.871094 116.054688 33.191406 116.117188 32.175781 C 116.117188 31.828125 116.335938 32.207031 116.554688 33 C 117.121094 34.808594 118.097656 35.789062 118.855469 35.316406 C 119.136719 35.125 119.703125 33.921875 120.109375 32.621094 C 120.519531 31.320312 121.183594 29.542969 121.589844 28.6875 L 122.347656 27.105469 L 122.347656 28.566406 C 122.40625 31.257812 123.226562 32.652344 124.863281 32.652344 C 125.839844 32.652344 127.253906 30.972656 127.851562 29.132812 C 128.132812 28.183594 128.828125 26.976562 129.359375 26.40625 C 130.496094 25.234375 130.304688 24.28125 129.140625 25.359375 L 128.417969 26.027344 L 128.226562 25.136719 C 127.914062 23.871094 127.15625 22.824219 126.371094 22.539062 C 125.773438 22.289062 125.839844 22.222656 126.9375 22.03125 C 128.511719 21.746094 130.554688 20.640625 130.554688 20.066406 C 130.554688 19.527344 129.957031 19.527344 129.332031 20.101562 C 128.355469 20.921875 126.652344 21.242188 123.132812 21.242188 C 119.292969 21.242188 119.074219 21.113281 120.046875 19.71875 C 120.550781 18.988281 120.457031 18.070312 119.859375 18.070312 C 119.671875 18.070312 119.074219 18.703125 118.539062 19.496094 Z M 123.003906 22.191406 L 124.734375 22.191406 L 123.730469 22.699219 C 122.785156 23.175781 122.0625 24.441406 122.0625 25.582031 C 122.0625 25.835938 121.714844 26.566406 121.277344 27.199219 C 120.832031 27.835938 120.109375 29.578125 119.671875 31.035156 C 118.949219 33.347656 118.789062 33.636719 118.480469 33.097656 C 117.976562 32.207031 118.003906 24.566406 118.570312 23.015625 C 118.980469 21.839844 119.042969 21.8125 120.144531 22.003906 C 120.773438 22.097656 122.0625 22.191406 123.003906 22.191406 Z M 126.75 24.28125 C 127.976562 25.867188 127.347656 27.261719 125.429688 27.261719 C 124.863281 27.261719 124.703125 27.105469 124.703125 26.597656 C 124.734375 26.214844 124.453125 25.773438 124.105469 25.550781 C 123.761719 25.359375 123.414062 25.171875 123.351562 25.136719 C 123.289062 25.105469 123.476562 24.695312 123.761719 24.25 C 124.488281 23.175781 125.867188 23.175781 126.75 24.28125 Z M 126.652344 29.640625 C 126.34375 30.433594 125.839844 31.226562 125.488281 31.414062 C 124.988281 31.671875 124.828125 31.574219 124.546875 30.84375 C 124.390625 30.371094 124.265625 29.640625 124.324219 29.199219 C 124.417969 28.5 124.609375 28.339844 125.679688 28.214844 C 126.371094 28.117188 127 28.089844 127.0625 28.117188 C 127.128906 28.148438 126.9375 28.847656 126.652344 29.640625 Z M 126.652344 29.640625 "/>
<path style=" stroke:none;fill-rule:nonzero;fill:rgb(0%,0%,0%);fill-opacity:1;" d="M 146.195312 18.578125 C 145.878906 18.894531 146.253906 19.339844 146.851562 19.304688 C 147.292969 19.304688 147.292969 19.242188 146.757812 18.988281 C 146.285156 18.765625 146.410156 18.734375 147.324219 18.832031 C 148.015625 18.925781 148.425781 18.863281 148.332031 18.671875 C 148.109375 18.355469 146.507812 18.292969 146.195312 18.578125 Z M 146.195312 18.578125 "/>
<path style=" stroke:none;fill-rule:nonzero;fill:rgb(0%,0%,0%);fill-opacity:1;" d="M 153.300781 20.828125 C 153.773438 20.890625 154.464844 20.890625 154.875 20.828125 C 155.253906 20.765625 154.875 20.699219 153.992188 20.699219 C 153.144531 20.699219 152.796875 20.765625 153.300781 20.828125 Z M 153.300781 20.828125 "/>
<path style=" stroke:none;fill-rule:nonzero;fill:rgb(0%,0%,0%);fill-opacity:1;" d="M 145.65625 22.824219 C 145.65625 22.984375 145.816406 23.140625 146.003906 23.140625 C 146.160156 23.140625 146.222656 22.984375 146.128906 22.824219 C 146.03125 22.636719 145.878906 22.507812 145.78125 22.507812 C 145.71875 22.507812 145.65625 22.636719 145.65625 22.824219 Z M 145.65625 22.824219 "/>
<path style=" stroke:none;fill-rule:nonzero;fill:rgb(0%,0%,0%);fill-opacity:1;" d="M 148.140625 24.917969 C 147.921875 25.171875 147.324219 25.613281 146.789062 25.867188 C 146.03125 26.214844 146.003906 26.25 146.601562 26.089844 C 147.578125 25.867188 148.804688 25.078125 148.804688 24.695312 C 148.804688 24.28125 148.613281 24.347656 148.140625 24.917969 Z M 148.140625 24.917969 "/>
<path style=" stroke:none;fill-rule:nonzero;fill:rgb(0%,0%,0%);fill-opacity:1;" d="M 148.960938 25.359375 C 148.613281 25.710938 147.765625 26.1875 147.074219 26.441406 C 146.253906 26.726562 146.03125 26.914062 146.441406 26.949219 C 146.851562 26.976562 146.601562 27.167969 145.816406 27.421875 C 144.585938 27.863281 144.554688 27.863281 145.65625 27.675781 C 146.253906 27.578125 147.039062 27.390625 147.386719 27.234375 L 148.015625 26.976562 L 147.386719 26.949219 C 146.886719 26.914062 146.945312 26.820312 147.699219 26.5 C 148.234375 26.28125 148.929688 25.773438 149.242188 25.394531 C 150 24.566406 149.78125 24.507812 148.960938 25.359375 Z M 148.960938 25.359375 "/>
<path style=" stroke:none;fill-rule:nonzero;fill:rgb(0%,0%,0%);fill-opacity:1;" d="M 145.46875 25.550781 C 144.902344 25.996094 144.902344 25.996094 145.65625 25.644531 C 146.628906 25.203125 146.789062 25.042969 146.410156 25.042969 C 146.222656 25.042969 145.816406 25.265625 145.46875 25.550781 Z M 145.46875 25.550781 "/>
<path style=" stroke:none;fill-rule:nonzero;fill:rgb(0%,0%,0%);fill-opacity:1;" d="M 139.996094 28.054688 C 138.859375 28.46875 138.105469 28.816406 138.292969 28.816406 C 138.453125 28.847656 139.585938 28.5 140.8125 28.089844 C 142.007812 27.640625 142.761719 27.328125 142.511719 27.328125 C 142.257812 27.328125 141.125 27.640625 139.996094 28.054688 Z M 139.996094 28.054688 "/>
<path style=" stroke:none;fill-rule:nonzero;fill:rgb(0%,0%,0%);fill-opacity:1;" d="M 143.707031 28.117188 C 143.925781 28.214844 144.207031 28.183594 144.304688 28.089844 C 144.429688 27.996094 144.242188 27.898438 143.894531 27.929688 C 143.550781 27.929688 143.453125 28.023438 143.707031 28.117188 Z M 143.707031 28.117188 "/>
<path style=" stroke:none;fill-rule:nonzero;fill:rgb(0%,0%,0%);fill-opacity:1;" d="M 84.75 30.878906 C 84.65625 31.128906 84.34375 31.257812 84.027344 31.164062 C 83.242188 30.972656 81.574219 32.460938 81.324219 33.570312 C 81.195312 34.109375 81.324219 34.96875 81.605469 35.632812 C 82.171875 36.996094 83.273438 37.1875 84.3125 36.078125 C 84.65625 35.695312 84.9375 35.539062 84.9375 35.757812 C 84.9375 36.300781 86.355469 36.550781 87.109375 36.171875 C 87.738281 35.824219 88.714844 34.207031 89.15625 32.714844 C 89.3125 32.207031 89.25 32.019531 88.90625 32.019531 C 88.652344 32.019531 88.335938 32.335938 88.210938 32.714844 C 87.867188 33.855469 86.828125 35.21875 86.449219 34.996094 C 86.261719 34.871094 86.226562 34.082031 86.355469 32.90625 C 86.546875 31.449219 86.484375 30.9375 86.167969 30.71875 C 85.507812 30.308594 84.9375 30.371094 84.75 30.878906 Z M 84.3125 33.320312 C 84.3125 34.367188 83.839844 35.503906 83.367188 35.503906 C 82.863281 35.503906 82.675781 34.207031 83.054688 33.253906 C 83.589844 32.019531 84.3125 32.050781 84.3125 33.320312 Z M 84.3125 33.320312 "/>
<path style=" stroke:none;fill-rule:nonzero;fill:rgb(0%,0%,0%);fill-opacity:1;" d="M 141.285156 31.890625 C 140.214844 32.78125 138.074219 36.996094 137.476562 39.308594 C 137.128906 40.609375 135.527344 42.796875 134.898438 42.796875 C 134.742188 42.796875 134.519531 42.480469 134.363281 42.066406 C 134.140625 41.496094 134.269531 41.179688 135.179688 40.355469 C 136.46875 39.152344 136.46875 38.261719 135.148438 38.105469 C 133.828125 37.949219 132.855469 39.023438 132.414062 41.152344 C 131.34375 46.347656 130.335938 47.679688 130.714844 43.429688 C 130.964844 40.609375 130.648438 40.132812 129.078125 40.867188 C 128.289062 41.246094 128.289062 41.210938 128.480469 40.105469 C 128.699219 38.960938 128.320312 38.042969 127.664062 38.042969 C 127.503906 38.042969 127 38.421875 126.5625 38.898438 C 126.027344 39.5 125.710938 39.65625 125.617188 39.375 C 125.523438 39.183594 125.175781 38.992188 124.796875 38.992188 C 124.296875 39.023438 123.824219 39.5 123.164062 40.640625 C 121.9375 42.765625 121.277344 43.050781 121.527344 41.339844 C 121.621094 40.640625 121.808594 39.628906 121.902344 39.089844 C 122.09375 38.261719 122.03125 38.007812 121.589844 37.855469 C 121.277344 37.722656 120.773438 37.785156 120.457031 37.980469 C 120.144531 38.199219 119.671875 38.261719 119.421875 38.167969 C 118.886719 37.980469 117.152344 38.804688 116.933594 39.375 C 116.808594 39.65625 116.527344 39.5 116.023438 38.898438 C 115.046875 37.785156 114.386719 37.820312 113.789062 39.023438 C 113.535156 39.597656 113.253906 39.882812 113.128906 39.65625 C 112.6875 38.929688 111.808594 39.40625 110.898438 40.796875 C 109.636719 42.796875 109.003906 42.984375 109.257812 41.339844 C 109.351562 40.640625 109.542969 39.628906 109.636719 39.089844 C 109.828125 38.261719 109.761719 38.007812 109.320312 37.855469 C 109.003906 37.722656 108.503906 37.785156 108.191406 37.980469 C 107.875 38.199219 107.40625 38.261719 107.148438 38.167969 C 106.429688 37.882812 104.820312 38.992188 104.445312 40.007812 C 104.289062 40.484375 103.972656 41.308594 103.78125 41.816406 C 103.34375 43.050781 101.773438 44.511719 101.171875 44.285156 C 100.421875 44 100.515625 41.464844 101.300781 40.546875 C 101.613281 40.132812 101.894531 39.976562 101.929688 40.164062 C 101.929688 40.957031 102.558594 40.578125 102.558594 39.785156 C 102.558594 38.578125 100.984375 38.675781 99.914062 39.941406 C 98.375 41.816406 98.53125 44.476562 100.195312 45.304688 C 100.984375 45.683594 101.207031 45.683594 102.148438 45.175781 C 102.714844 44.855469 103.441406 44.191406 103.753906 43.6875 C 104.253906 42.859375 104.382812 42.828125 104.757812 43.242188 C 105.292969 43.9375 106.113281 43.875 106.804688 43.113281 L 107.371094 42.480469 L 107.8125 43.113281 C 108.410156 43.96875 109.226562 43.90625 110.359375 42.957031 C 111.523438 41.972656 111.617188 41.972656 111.742188 42.859375 C 111.808594 43.304688 112.089844 43.621094 112.5 43.6875 C 113.035156 43.75 113.222656 43.460938 113.726562 41.84375 C 114.039062 40.796875 114.386719 39.941406 114.511719 39.941406 C 114.605469 39.941406 115.082031 40.132812 115.550781 40.324219 C 116.148438 40.609375 116.398438 40.988281 116.398438 41.53125 C 116.398438 42.578125 117.21875 43.75 117.941406 43.75 C 118.257812 43.75 118.761719 43.460938 119.074219 43.113281 L 119.640625 42.480469 L 120.078125 43.113281 C 120.679688 43.96875 121.496094 43.90625 122.664062 42.957031 C 123.605469 42.132812 123.605469 42.132812 123.949219 42.796875 C 124.488281 43.8125 125.113281 43.558594 125.804688 42.007812 C 126.152344 41.210938 126.464844 40.578125 126.53125 40.578125 C 126.59375 40.578125 126.625 41.082031 126.625 41.71875 C 126.625 43.335938 127.441406 43.8125 128.449219 42.859375 L 129.203125 42.164062 L 129.046875 43.90625 C 128.828125 46.789062 130.367188 48.25 131.753906 46.445312 C 132.097656 45.996094 132.472656 45.082031 132.601562 44.378906 C 132.824219 43.144531 133.167969 42.796875 133.542969 43.429688 C 133.828125 43.875 134.835938 43.8125 135.871094 43.273438 L 136.785156 42.828125 L 136.972656 44.730469 C 137.414062 48.472656 138.234375 49.328125 139.738281 47.550781 C 140.214844 46.949219 140.621094 46.347656 140.621094 46.222656 C 140.621094 46.09375 141 45.175781 141.472656 44.164062 L 142.289062 42.320312 L 142.542969 43.84375 C 143.136719 47.617188 145.941406 47.523438 147.828125 43.714844 C 148.425781 42.480469 149.214844 41.464844 149.902344 40.988281 C 150.5 40.578125 151.003906 40.105469 151.003906 39.941406 C 151.003906 39.53125 150.15625 39.53125 149.902344 39.941406 C 149.523438 40.578125 148.804688 40.261719 148.804688 39.46875 C 148.804688 38.421875 148.015625 36.902344 147.386719 36.644531 C 146.535156 36.328125 144.585938 36.457031 144.050781 36.871094 C 143.359375 37.40625 142.824219 38.484375 142.824219 39.375 C 142.824219 39.785156 142.324219 40.796875 141.726562 41.65625 C 141.125 42.511719 140.621094 43.335938 140.621094 43.429688 C 140.621094 43.558594 140.339844 44.351562 139.960938 45.175781 C 139.457031 46.28125 139.238281 46.570312 139.019531 46.253906 C 138.609375 45.617188 138.671875 42.640625 139.144531 40.417969 C 139.492188 38.738281 139.738281 38.292969 141.0625 37.09375 C 143.421875 34.902344 144.460938 32.078125 143.171875 31.386719 C 142.351562 30.972656 142.386719 30.9375 141.285156 31.890625 Z M 142.824219 32.96875 C 142.824219 33.605469 141.945312 35.03125 141.0625 35.824219 L 140.214844 36.617188 L 141.253906 34.617188 C 142.195312 32.8125 142.824219 32.148438 142.824219 32.96875 Z M 147.355469 38.105469 C 147.640625 38.484375 147.859375 39.339844 147.859375 39.976562 C 147.859375 41.054688 147.765625 41.152344 146.757812 41.339844 C 145.339844 41.625 145.058594 41.433594 145.28125 40.417969 C 145.371094 39.753906 145.28125 39.5625 144.746094 39.40625 C 143.957031 39.214844 143.925781 39.023438 144.585938 38.105469 C 144.902344 37.664062 145.40625 37.40625 145.972656 37.40625 C 146.535156 37.40625 147.039062 37.664062 147.355469 38.105469 Z M 107.464844 40.324219 C 107.246094 41.433594 106.394531 42.542969 105.984375 42.292969 C 105.167969 41.816406 106.175781 39.308594 107.179688 39.308594 C 107.558594 39.308594 107.625 39.53125 107.464844 40.324219 Z M 119.703125 40.324219 C 119.453125 41.496094 118.667969 42.542969 118.257812 42.292969 C 117.46875 41.816406 118.445312 39.308594 119.421875 39.308594 C 119.796875 39.308594 119.859375 39.53125 119.703125 40.324219 Z M 147.542969 42.542969 C 147.542969 42.894531 145.53125 45.429688 145.121094 45.554688 C 144.617188 45.746094 144.304688 44.542969 144.523438 43.335938 C 144.714844 42.386719 144.777344 42.320312 146.128906 42.320312 C 146.914062 42.320312 147.542969 42.417969 147.542969 42.542969 Z M 147.542969 42.542969 "/>
<path style=" stroke:none;fill-rule:nonzero;fill:rgb(0%,0%,0%);fill-opacity:1;" d="M 85.632812 40.738281 C 85.414062 41.179688 85.253906 42.386719 85.253906 43.402344 C 85.253906 46.886719 87.582031 49.992188 91.203125 51.390625 C 93.402344 52.210938 98.027344 52.152344 99.570312 51.226562 C 100.101562 50.941406 100.261719 50.753906 99.976562 50.847656 C 93.875 52.6875 88.558594 50.847656 86.324219 46.125 C 85.507812 44.414062 85.316406 41.941406 85.914062 40.832031 C 86.101562 40.484375 86.199219 40.132812 86.101562 40.070312 C 86.039062 40.007812 85.820312 40.292969 85.632812 40.738281 Z M 85.632812 40.738281 "/>
<path style=" stroke:none;fill-rule:nonzero;fill:rgb(0%,0%,0%);fill-opacity:1;" d="M 98.9375 53.925781 C 98.4375 54.113281 96.578125 54.367188 94.851562 54.523438 L 91.703125 54.8125 L 95.320312 54.714844 C 97.710938 54.65625 99.316406 54.429688 100.042969 54.113281 C 101.300781 53.546875 100.480469 53.417969 98.9375 53.925781 Z M 98.9375 53.925781 "/>
</g>
</svg>
